<svg height="512pt" viewBox="0 0 512.00002 512" width="512pt" xmlns="http://www.w3.org/2000/svg"><path d="m358.398438 230.398438v247.46875c0 14.136718-11.460938 25.597656-25.597657 25.597656h-17.066406c-1.433594.035156-2.867187-.109375-4.269531-.425782-12.324219-2.019531-21.363282-12.683593-21.332032-25.171874v-247.46875zm0 0" fill="#7facfa"/><path d="m435.199219 8.535156h-264.53125c-24.378907-.03125-46.910157 12.992188-59.050781 34.132813l-9.21875 153.597656v25.601563c0 4.710937 3.820312 8.53125 8.535156 8.53125h384c4.710937 0 8.53125-3.820313 8.53125-8.53125v-145.066407c0-37.703125-30.5625-68.265625-68.265625-68.265625zm0 0" fill="#d1d4d1"/><path d="m102.398438 196.265625v25.601563c0 4.710937 3.820312 8.53125 8.535156 8.53125h128v-153.597657c0-6.734375-.976563-13.429687-2.902344-19.882812-1.332031-4.390625-3.136719-8.625-5.375-12.628907-3.101562-5.808593-7.039062-11.128906-11.691406-15.789062-15.011719-14.984375-36.136719-22.144531-57.164063-19.371094-21.03125 2.777344-39.574219 15.167969-50.183593 33.539063" fill="#a4c2f7"/><path d="m221.867188 42.667969h-187.734376c-14.113281.058593-25.539062 11.484375-25.597656 25.597656v102.402344c.011719 3.96875.945313 7.882812 2.730469 11.433593 4.289063 8.703126 13.164063 14.203126 22.867187 14.164063h187.734376c6.308593.015625 12.394531-2.328125 17.066406-6.570313l1.28125-22.269531 6.910156-118.019531.339844-5.117188c-8.492188-1.0625-17.039063-1.601562-25.597656-1.621093zm0 0" fill="#f0c419"/><path d="m240.214844 167.425781-1.28125 22.269531c-4.671875 4.242188-10.757813 6.585938-17.066406 6.570313h-187.734376c-9.703124.039063-18.578124-5.460937-22.867187-14.164063 26.109375-24.492187 60.671875-58.28125 85.417969-82.6875 18.347656 11.691407 31.316406 20.050782 31.316406 20.050782l34.730469-20.136719zm0 0" fill="#a4c2f7"/><path d="m247.464844 44.289062-.339844 5.117188-84.394531 49.921875-34.730469 20.136719s-12.96875-8.359375-31.316406-20.050782c-22.957032-14.761718-54.445313-34.644531-79.703125-50.089843 4.6875-4.28125 10.804687-6.65625 17.152343-6.65625h187.734376c8.558593.019531 17.105468.558593 25.597656 1.621093zm0 0" fill="#e3e7f2"/><path d="m247.125 49.40625-6.910156 118.019531-77.484375-68.097656zm0 0" fill="#a4c2f7"/><path d="m96.683594 99.414062c-24.746094 24.40625-59.308594 58.195313-85.417969 82.6875-1.785156-3.550781-2.71875-7.464843-2.730469-11.433593v-102.402344c-.027344-7.230469 3.046875-14.128906 8.445313-18.941406 25.257812 15.445312 56.746093 35.328125 79.703125 50.089843zm0 0" fill="#a4c2f7"/><path d="m503.464844 76.800781v145.066407c0 4.710937-3.820313 8.53125-8.53125 8.53125h-256v-153.597657c0-6.734375-.976563-13.429687-2.902344-19.882812-1.332031-4.390625-3.136719-8.625-5.375-12.628907-3.101562-5.808593-7.039062-11.128906-11.691406-15.789062-12.820313-12.785156-30.191406-19.96875-48.296875-19.964844h264.53125c37.703125 0 68.265625 30.5625 68.265625 68.265625zm0 0" fill="#d4e1f4"/><path d="m503.464844 76.800781v145.066407c0 4.710937-3.820313 8.53125-8.53125 8.53125h-136.535156v-221.863282h76.800781c37.703125 0 68.265625 30.5625 68.265625 68.265625zm0 0" fill="#d4e1f4"/><path d="m332.800781 230.398438v247.46875c.03125 12.488281-9.007812 23.152343-21.335937 25.171874-12.324219-2.019531-21.363282-12.683593-21.332032-25.171874v-247.46875zm0 0" fill="#a4c2f7"/><path d="m477.867188 76.800781v145.066407c0 4.710937-3.820313 8.53125-8.535157 8.53125h-110.933593v-221.863282h51.203124c37.699219 0 68.265626 30.5625 68.265626 68.265625zm0 0" fill="#f5f5f5"/><g fill="#fff"><path d="m111.617188 42.667969h25.597656c12.144531-21.140625 34.671875-34.164063 59.050781-34.132813h-25.597656c-24.378907-.03125-46.910157 12.992188-59.050781 34.132813zm0 0"/><path d="m128 221.867188v-25.601563h-25.601562v25.601563c0 4.710937 3.820312 8.53125 8.535156 8.53125h25.601562c-4.714844 0-8.535156-3.820313-8.535156-8.53125zm0 0"/><path d="m36.863281 182.101562c-1.78125-3.550781-2.714843-7.464843-2.730469-11.433593v-102.402344c.0625-14.113281 11.488282-25.539063 25.601563-25.597656h-25.601563c-14.113281.058593-25.539062 11.484375-25.597656 25.597656v102.402344c.011719 3.96875.945313 7.882812 2.730469 11.433593 4.289063 8.703126 13.164063 14.203126 22.867187 14.164063h25.601563c-9.703125.039063-18.582031-5.460937-22.871094-14.164063zm0 0"/><path d="m298.667969 230.398438v247.46875h-17.066407v-247.46875zm0 0"/></g><path d="m435.199219 0h-264.53125c-25.5625.0625-49.414063 12.863281-63.589844 34.132812h-72.945313c-8.085937.023438-15.898437 2.933594-22.023437 8.210938l-.164063.160156c-.1875.152344-.398437.265625-.578124.425782-7.238282 6.429687-11.3789068 15.65625-11.367188 25.335937v102.402344c.0507812 4.875 1.144531 9.683593 3.207031 14.105469.0625.167968.121094.339843.1875.511718.070313.167969.128907.410156.222657.597656 5.707031 11.628907 17.558593 18.976563 30.515624 18.917969h59.734376v17.066407c0 9.425781 7.640624 17.066406 17.066406 17.066406h170.667968v25.601562c0 4.710938 3.820313 8.53125 8.53125 8.53125 4.714844 0 8.535157-3.820312 8.535157-8.53125v-25.601562h51.199219v238.933594c0 9.425781-7.640626 17.066406-17.066407 17.066406h-17.066406c-9.425781 0-17.066406-7.640625-17.066406-17.066406v-145.066407c0-4.714843-3.820313-8.535156-8.535157-8.535156-4.710937 0-8.53125 3.820313-8.53125 8.535156v145.066407c0 18.851562 15.28125 34.132812 34.132813 34.132812h17.066406c18.851563 0 34.132813-15.28125 34.132813-34.132812v-238.933594h128c9.425781 0 17.066406-7.640625 17.066406-17.066406v-145.066407c-.046875-42.398437-34.402344-76.753906-76.800781-76.800781zm-264.53125 17.066406c15.636719-.011718 30.652343 6.117188 41.8125 17.066406h-83.542969c11.148438-10.921874 26.125-17.046874 41.730469-17.066406zm-11.582031 74.539063-30.855469 17.859375c-5.289063-3.414063-14.976563-9.609375-26.929688-17.21875-17.101562-11-41.6875-26.597656-65-41.046875h185.566407c.945312.003906 1.890624.09375 2.824218.265625.273438.5625.570313 1.101562.851563 1.707031l-66.429688 38.460937zm-142.019532 73.265625v-96.605469c.019532-2.675781.679688-5.308594 1.921875-7.679687 21.777344 13.398437 45.652344 28.46875 64.09375 40.261718-19.933593 19.558594-44.535156 43.605469-66.015625 64.023438zm212.863282-94.554688c.273437 2.148438.429687 4.316406.46875 6.484375v71.621094l-53.1875-47.59375zm-207.289063 112.792969c23.890625-22.582031 52.90625-50.875 75.183594-72.839844 15.21875 9.699219 25.542969 16.363281 25.550781 16.363281 2.695312 1.742188 6.136719 1.824219 8.910156.214844l29.386719-17.015625 68.726563 61.492188v14.070312c-2.585938 1.523438-5.53125 2.332031-8.53125 2.339844h-187.734376c-4.28125-.023437-8.390624-1.679687-11.492187-4.625zm88.292969 21.691406h110.933594c2.882812-.042969 5.75-.453125 8.53125-1.222656v18.289063h-119.464844zm384 17.066407h-247.46875v-145.066407c-.003906-7.585937-1.105469-15.132812-3.273438-22.402343-1.445312-4.734376-3.375-9.3125-5.761718-13.652344-.085938-.152344-.152344-.332032-.238282-.484375-3.503906-6.5625-7.957031-12.566407-13.21875-17.820313-1.914062-1.894531-3.925781-3.6875-6.023437-5.375h216.25c32.972656.042969 59.691406 26.761719 59.734375 59.734375zm0 0" fill="#428dff"/><path d="m290.132812 307.199219c3.46875.019531 6.601563-2.058594 7.929688-5.261719 1.332031-3.199219.589844-6.886719-1.871094-9.328125l-1.28125-1.023437c-.472656-.324219-.992187-.582032-1.535156-.769532-.484375-.246094-1-.417968-1.535156-.511718-.5625-.09375-1.132813-.152344-1.707032-.171876-2.257812.035157-4.421874.917969-6.058593 2.476563-.769531.816406-1.378907 1.769531-1.792969 2.816406-1.285156 3.179688-.585938 6.824219 1.792969 9.300781.816406.769532 1.773437 1.378907 2.816406 1.789063 1.027344.4375 2.128906.671875 3.242187.683594zm0 0" fill="#428dff"/><path d="m443.734375 34.132812h-162.132813c-4.714843 0-8.535156 3.820313-8.535156 8.535157 0 4.710937 3.820313 8.53125 8.535156 8.53125h162.132813c4.710937 0 8.53125-3.820313 8.53125-8.53125 0-4.714844-3.820313-8.535157-8.53125-8.535157zm0 0" fill="#428dff"/><path d="m341.332031 68.265625h-59.730469c-4.714843 0-8.535156 3.820313-8.535156 8.535156 0 4.710938 3.820313 8.53125 8.535156 8.53125h59.730469c4.714844 0 8.535157-3.820312 8.535157-8.53125 0-4.714843-3.820313-8.535156-8.535157-8.535156zm0 0" fill="#428dff"/></svg>