<?xml version="1.0" encoding="UTF-8"?><!DOCTYPE svg PUBLIC "-//W3C//DTD SVG 1.1//EN" "http://www.w3.org/Graphics/SVG/1.1/DTD/svg11.dtd"><svg xmlns="http://www.w3.org/2000/svg" xmlns:xlink="http://www.w3.org/1999/xlink" width="32" height="32" viewBox="0 0 32 32" fill="#000"><path d="M26 0H6a6 6 0 0 0-6 6v20a6 6 0 0 0 6 6h20a6 6 0 0 0 6-6V6a6 6 0 0 0-6-6zm-2.04 12.408c.008.17.012.34.012.51 0 5.206-3.962 11.208-11.208 11.208-2.224 0-4.294-.652-6.038-1.77a7.905 7.905 0 0 0 5.832-1.63 3.946 3.946 0 0 1-3.68-2.736 3.939 3.939 0 0 0 1.78-.068 3.942 3.942 0 0 1-3.16-3.862v-.05a3.933 3.933 0 0 0 1.784.494 3.938 3.938 0 0 1-1.752-3.278c0-.722.194-1.398.532-1.98a11.18 11.18 0 0 0 8.12 4.116 3.94 3.94 0 0 1 6.714-3.592 7.94 7.94 0 0 0 2.502-.956 3.95 3.95 0 0 1-1.732 2.18 7.878 7.878 0 0 0 2.262-.62 7.962 7.962 0 0 1-1.968 2.034z"/><metadata><rdf:RDF xmlns:rdf="http://www.w3.org/1999/02/22-rdf-syntax-ns#" xmlns:rdfs="http://www.w3.org/2000/01/rdf-schema#" xmlns:dc="http://purl.org/dc/elements/1.1/"><rdf:Description about="https://iconscout.com/legal#licenses" dc:title="social,twitter,square" dc:description="social,twitter,square" dc:publisher="Iconscout" dc:date="2017-09-25" dc:format="image/svg+xml" dc:language="en"><dc:creator><rdf:Bag><rdf:li>Elegant Themes</rdf:li></rdf:Bag></dc:creator></rdf:Description></rdf:RDF></metadata></svg>